<svg width="27" height="35" viewBox="0 0 27 35" fill="none" xmlns="http://www.w3.org/2000/svg">
<path d="M22.4819 19.8744C22.4819 27.0462 15.1363 31.4646 13.6098 32.3061C13.5252 32.3528 13.4302 32.3772 13.3336 32.3772C13.2371 32.3772 13.1421 32.3528 13.0575 32.3061C11.5298 31.4646 4.18652 27.0462 4.18652 19.8744C4.18652 14.1571 7.6169 10.155 13.3342 10.155C19.0515 10.155 22.4819 14.1571 22.4819 19.8744Z" stroke="white" stroke-width="1.86667" stroke-linecap="round" stroke-linejoin="round"/>
<path d="M8.76074 19.3027C8.76074 20.5158 9.24263 21.6792 10.1004 22.5369C10.9582 23.3947 12.1215 23.8766 13.3346 23.8766C14.5476 23.8766 15.711 23.3947 16.5688 22.5369C17.4265 21.6792 17.9084 20.5158 17.9084 19.3027C17.9084 18.0897 17.4265 16.9263 16.5688 16.0685C15.711 15.2108 14.5476 14.7289 13.3346 14.7289C12.1215 14.7289 10.9582 15.2108 10.1004 16.0685C9.24263 16.9263 8.76074 18.0897 8.76074 19.3027V19.3027Z" stroke="white" stroke-width="1.86667" stroke-linecap="round" stroke-linejoin="round"/>
</svg>
