<svg width="27" height="28" viewBox="0 0 27 28" fill="none" xmlns="http://www.w3.org/2000/svg">
<path d="M24.4444 8.43262V19.5437C24.4444 20.2804 24.1517 20.987 23.6308 21.5079C23.1099 22.0288 22.4033 22.3215 21.6666 22.3215H4.99995C4.26323 22.3215 3.55669 22.0288 3.03576 21.5079C2.51483 20.987 2.22217 20.2804 2.22217 19.5437V8.43262" stroke="white" stroke-width="1.86667" stroke-linecap="round" stroke-linejoin="round"/>
<path d="M24.4444 8.43256C24.4444 7.69585 24.1517 6.98931 23.6308 6.46838C23.1099 5.94744 22.4033 5.65479 21.6666 5.65479H4.99995C4.26323 5.65479 3.55669 5.94744 3.03576 6.46838C2.51483 6.98931 2.22217 7.69585 2.22217 8.43256L11.8611 14.4511C12.3025 14.727 12.8127 14.8733 13.3333 14.8733C13.8539 14.8733 14.364 14.727 14.8055 14.4511L24.4444 8.43256Z" stroke="white" stroke-width="1.86667" stroke-linecap="round" stroke-linejoin="round"/>
</svg>
