<svg width="26" height="26" viewBox="0 0 26 26" fill="none" xmlns="http://www.w3.org/2000/svg">
<path fill-rule="evenodd" clip-rule="evenodd" d="M1.79932 12.5267C1.79932 7.73321 1.79932 5.33645 2.94157 3.61014C3.45164 2.83925 4.11184 2.17906 4.88272 1.66899C6.60904 0.526733 9.0058 0.526733 13.7993 0.526733C18.5928 0.526733 20.9896 0.526733 22.7159 1.66899C23.4868 2.17906 24.147 2.83925 24.6571 3.61014C25.7993 5.33645 25.7993 7.73321 25.7993 12.5267C25.7993 17.3203 25.7993 19.717 24.6571 21.4433C24.147 22.2142 23.4868 22.8744 22.7159 23.3845C20.9896 24.5267 18.5928 24.5267 13.7993 24.5267C9.0058 24.5267 6.60904 24.5267 4.88272 23.3845C4.11184 22.8744 3.45164 22.2142 2.94157 21.4433C1.79932 19.717 1.79932 17.3203 1.79932 12.5267ZM20.0117 12.527C20.0117 15.9581 17.2302 18.7396 13.7991 18.7396C10.368 18.7396 7.58659 15.9581 7.58659 12.527C7.58659 9.09594 10.368 6.31449 13.7991 6.31449C17.2302 6.31449 20.0117 9.09594 20.0117 12.527ZM13.7991 16.6377C16.0694 16.6377 17.9098 14.7973 17.9098 12.527C17.9098 10.2568 16.0694 8.41637 13.7991 8.41637C11.5289 8.41637 9.68846 10.2568 9.68846 12.527C9.68846 14.7973 11.5289 16.6377 13.7991 16.6377ZM20.257 7.46221C21.0632 7.46221 21.7167 6.80865 21.7167 6.00245C21.7167 5.19624 21.0632 4.54268 20.257 4.54268C19.4508 4.54268 18.7972 5.19624 18.7972 6.00245C18.7972 6.80865 19.4508 7.46221 20.257 7.46221Z" fill="white"/>
</svg>
