<svg width="26" height="25" viewBox="0 0 26 25" fill="none" xmlns="http://www.w3.org/2000/svg">
<path d="M1.46631 4.41965C1.46631 3.65003 1.73659 3.01511 2.27712 2.51489C2.81765 2.01464 3.52037 1.76453 4.38523 1.76453C5.23466 1.76453 5.9219 2.01078 6.447 2.50334C6.98754 3.01128 7.25781 3.67312 7.25781 4.48891C7.25781 5.22773 6.99527 5.84339 6.47017 6.33595C5.92964 6.84389 5.2192 7.09786 4.3389 7.09786H4.31573C3.4663 7.09786 2.77906 6.84389 2.25395 6.33595C1.72885 5.82802 1.46631 5.18924 1.46631 4.41965ZM1.76747 24.6217V9.19887H6.91032V24.6217H1.76747ZM9.75974 24.6217H14.9026V16.0098C14.9026 15.4711 14.9644 15.0555 15.0879 14.7631C15.3041 14.2397 15.6323 13.7972 16.0725 13.4355C16.5126 13.0738 17.0648 12.8929 17.7289 12.8929C19.4586 12.8929 20.3235 14.055 20.3235 16.3792V24.6217H25.4663V15.779C25.4663 13.5009 24.9258 11.7732 23.8447 10.5957C22.7636 9.4182 21.335 8.82946 19.559 8.82946C17.5667 8.82946 16.0146 9.68371 14.9026 11.3922V11.4384H14.8794L14.9026 11.3922V9.19887H9.75974C9.79063 9.6914 9.80608 11.2229 9.80608 13.7934C9.80608 16.3638 9.79063 19.9733 9.75974 24.6217Z" fill="white"/>
</svg>
