<svg width="27" height="28" viewBox="0 0 27 28" fill="none" xmlns="http://www.w3.org/2000/svg">
<path d="M16.3354 23.6801L16.3475 23.6886C17.3969 24.3567 18.6429 24.6469 19.8795 24.5111C21.1161 24.3753 22.2694 23.8216 23.1488 22.9416L23.9127 22.1777C24.082 22.0085 24.2163 21.8077 24.3079 21.5866C24.3995 21.3655 24.4467 21.1285 24.4467 20.8891C24.4467 20.6498 24.3995 20.4128 24.3079 20.1917C24.2163 19.9706 24.082 19.7697 23.9127 19.6005L20.6906 16.3809C20.5214 16.2116 20.3205 16.0773 20.0994 15.9857C19.8783 15.894 19.6413 15.8469 19.402 15.8469C19.1627 15.8469 18.9257 15.894 18.7046 15.9857C18.4835 16.0773 18.2826 16.2116 18.1134 16.3809C17.7718 16.7224 17.3085 16.9143 16.8254 16.9143C16.3424 16.9143 15.8791 16.7224 15.5375 16.3809L10.3855 11.2277C10.044 10.8861 9.85213 10.4228 9.85213 9.93974C9.85213 9.45668 10.044 8.99339 10.3855 8.65176C10.5548 8.48258 10.6891 8.2817 10.7807 8.0606C10.8723 7.83949 10.9195 7.6025 10.9195 7.36317C10.9195 7.12383 10.8723 6.88684 10.7807 6.66574C10.6891 6.44464 10.5548 6.24376 10.3855 6.07458L7.16464 2.85492C6.82301 2.51339 6.35972 2.32153 5.87666 2.32153C5.39359 2.32153 4.9303 2.51339 4.58867 2.85492L3.82353 3.61884C2.94373 4.49836 2.39032 5.65172 2.25473 6.88834C2.11915 8.12495 2.4095 9.37082 3.07783 10.4201L3.08511 10.4322C6.61469 15.6543 11.1126 20.1514 16.3354 23.6801V23.6801Z" stroke="white" stroke-width="1.86667" stroke-linecap="round" stroke-linejoin="round"/>
</svg>
