<svg width="27" height="35" viewBox="0 0 27 35" fill="none" xmlns="http://www.w3.org/2000/svg">
<path d="M22.4809 19.8744C22.4809 27.0462 15.1353 31.4646 13.6088 32.3061C13.5242 32.3528 13.4292 32.3772 13.3327 32.3772C13.2361 32.3772 13.1411 32.3528 13.0565 32.3061C11.5288 31.4646 4.18555 27.0462 4.18555 19.8744C4.18555 14.1571 7.61593 10.155 13.3332 10.155C19.0505 10.155 22.4809 14.1571 22.4809 19.8744Z" stroke="white" stroke-width="1.86667" stroke-linecap="round" stroke-linejoin="round"/>
<path d="M8.75977 19.3027C8.75977 20.5158 9.24165 21.6792 10.0994 22.5369C10.9572 23.3947 12.1205 23.8766 13.3336 23.8766C14.5467 23.8766 15.71 23.3947 16.5678 22.5369C17.4256 21.6792 17.9074 20.5158 17.9074 19.3027C17.9074 18.0897 17.4256 16.9263 16.5678 16.0685C15.71 15.2108 14.5467 14.7289 13.3336 14.7289C12.1205 14.7289 10.9572 15.2108 10.0994 16.0685C9.24165 16.9263 8.75977 18.0897 8.75977 19.3027V19.3027Z" stroke="white" stroke-width="1.86667" stroke-linecap="round" stroke-linejoin="round"/>
</svg>
