<svg width="30" height="34" viewBox="0 0 30 34" fill="none" xmlns="http://www.w3.org/2000/svg">
<path fill-rule="evenodd" clip-rule="evenodd" d="M13.9085 0.0934643C12.5508 0.360277 11.4089 0.940866 10.414 1.87005C8.85281 3.32797 7.89143 5.29834 7.67328 7.48734L7.60288 8.193L3.91352 8.24006C1.05133 8.27658 0.196773 8.31469 0.101906 8.41012C0.0145684 8.49802 -0.013007 8.79383 0.0054393 9.44538C0.061343 11.4211 0.965213 31.0854 1.01613 31.4352C1.15466 32.3854 1.75426 33.2295 2.58623 33.6452L3.16249 33.9332L14.9353 33.9322L26.708 33.9313L27.194 33.705C28.1619 33.2544 28.7725 32.3823 28.93 31.226C28.9776 30.8774 29.2549 25.6472 29.5465 19.6034C30.0575 9.0068 30.0704 8.60786 29.907 8.42735C29.7434 8.24646 29.6117 8.24006 26.0817 8.24006H22.4258V8.0171C22.4258 7.60423 22.1402 6.12748 21.941 5.51076C21.2947 3.50895 19.8023 1.66084 18.1171 0.77532C16.8511 0.110028 15.1918 -0.158855 13.9085 0.0934643ZM16.1491 2.07484C18.2439 2.62042 19.8507 4.55437 20.3142 7.08782C20.4011 7.56263 20.4472 8.01607 20.4167 8.09559C20.3677 8.22312 19.7316 8.24006 14.98 8.24006H9.59875L9.65673 7.55322C9.78933 5.98547 10.4339 4.6035 11.5533 3.48702C12.6422 2.40114 13.6121 1.95984 14.9475 1.9428C15.3119 1.93819 15.8526 1.99758 16.1491 2.07484ZM17.0143 12.6561C17.8914 12.8878 19.6493 13.7169 19.7796 13.9604C19.8478 14.0876 19.7902 14.2573 19.54 14.6663C19.3589 14.9622 19.1621 15.2045 19.1027 15.2045C19.0432 15.2045 18.6124 15.0132 18.1455 14.7792C16.1337 13.7714 14.0165 13.6833 12.7039 14.5528C11.9235 15.0696 11.4498 15.9726 11.5289 16.7919C11.6446 17.9894 12.5354 18.8179 14.4836 19.5399C16.664 20.348 17.3082 20.6244 18.0722 21.0799C19.9008 22.17 20.7641 23.5955 20.5839 25.2276C20.2839 27.9448 18.2754 29.5482 15.179 29.5423C13.658 29.5394 12.4468 29.2632 11.114 28.6154C10.3057 28.2225 9.24987 27.4481 9.24987 27.2482C9.24987 27.09 9.96542 26.0276 10.0721 26.0276C10.1044 26.0276 10.4764 26.2598 10.8985 26.5436C11.3206 26.8274 11.9164 27.1705 12.2226 27.306C14.83 28.4608 17.7315 27.9168 18.6785 26.0956C19.0005 25.4764 18.9732 24.5338 18.6141 23.8773C18.0894 22.9176 17.1766 22.2917 15.3673 21.6513C13.6399 21.0398 12.3598 20.4847 11.799 20.1039C11.093 19.6245 10.413 18.8662 10.106 18.2161C9.8891 17.7567 9.86161 17.5823 9.86161 16.6633C9.86161 15.6759 9.8763 15.5988 10.178 14.9975C10.555 14.2465 11.422 13.3705 12.1572 12.998C13.0847 12.528 13.871 12.3748 15.132 12.4182C15.8682 12.4437 16.5235 12.5265 17.0143 12.6561Z" fill="white"/>
</svg>
