<svg width="30" height="34" viewBox="0 0 30 34" fill="none" xmlns="http://www.w3.org/2000/svg">
<path fill-rule="evenodd" clip-rule="evenodd" d="M12.5107 0.212929C12.1628 0.322384 11.6846 0.549612 11.4483 0.718028C11.2118 0.886295 10.9586 1.02397 10.8854 1.02397C10.6494 1.02397 9.05941 2.5256 9.05941 2.74837C9.05941 2.86704 8.95916 3.00248 8.83663 3.04941C8.71411 3.09649 8.61386 3.196 8.61386 3.27055C8.61386 3.34511 8.45272 3.66144 8.25579 3.97347C8.05871 4.2855 7.80965 4.91907 7.70213 5.38139L7.50668 6.22199H3.75342H0V19.9596V33.6972H10.76C21.4668 33.6972 22.4638 33.6568 23.5396 33.1803C24.7289 32.6535 25.0632 32.4923 25.5371 32.2176C25.8189 32.0542 26.1062 31.8191 26.1757 31.6951C26.2451 31.5709 26.3853 31.4695 26.4872 31.4695C26.7183 31.4695 27.7723 30.4047 27.7723 30.1712C27.7723 30.0766 27.8774 29.9403 28.0059 29.8684C28.501 29.5912 29.6234 27.1921 29.8332 25.9623C29.9445 25.31 30 21.863 30 15.6034V6.22199H26.2365H22.473L22.2833 5.37441C22.1791 4.90823 21.9345 4.27466 21.7399 3.96649C21.5453 3.65832 21.3861 3.34511 21.3861 3.27055C21.3861 3.196 21.2859 3.09649 21.1634 3.04941C21.0408 3.00248 20.9406 2.86704 20.9406 2.74837C20.9406 2.5256 19.3506 1.02397 19.1146 1.02397C19.0414 1.02397 18.7907 0.888077 18.5575 0.722038C17.7958 0.179662 16.8244 -0.0132592 14.9257 0.000701156C13.887 0.00827541 12.8797 0.0967903 12.5107 0.212929ZM17.3762 2.59585C18.1335 2.99476 19.604 4.30436 19.604 4.58016C19.604 4.64639 19.7152 4.95931 19.8511 5.27565C20.2629 6.23372 20.2286 6.3705 19.5771 6.3705C19.263 6.3705 18.8898 6.43021 18.7479 6.50313C18.6061 6.5762 18.1225 6.71387 17.6733 6.80936C17.224 6.90471 16.4388 7.15333 15.9282 7.36169L15 7.74055L14.0718 7.36169C13.5613 7.15333 12.776 6.90471 12.3267 6.80936C11.8775 6.71387 11.3939 6.5762 11.2521 6.50313C11.1102 6.43021 10.7404 6.3705 10.4303 6.3705C9.93758 6.3705 9.8694 6.32833 9.8899 6.03635C9.97069 4.88491 11.2439 3.29803 12.6238 2.62912C13.8021 2.05793 13.7626 2.06565 15.2228 2.11793C16.3552 2.15847 16.6842 2.23139 17.3762 2.59585ZM10.5653 7.8509C12.3055 8.21684 13.0398 8.42639 13.4309 8.66907C13.5997 8.77377 14.0577 8.97783 14.4489 9.12248L15.1602 9.38565L16.0846 8.9211C17.2929 8.31397 18.2603 8.02689 19.4973 7.90852C20.0511 7.8555 20.5396 7.75511 20.5828 7.6853C20.6259 7.61565 22.4615 7.55862 24.6622 7.55862H28.6634L28.6384 12.4967C28.6246 15.2126 28.5906 17.1675 28.5627 16.8408C28.473 15.7921 28.1808 14.9302 27.6358 14.1062C27.3432 13.6641 27.0187 13.1501 26.9145 12.9641C26.6734 12.5337 24.9483 11.3821 23.9822 11.0065C22.9966 10.6235 21.5107 10.4912 20.2308 10.6728C19.2839 10.8071 18.7482 11.0239 17.1135 11.9351C16.7256 12.1511 15.7445 13.1296 15.7386 13.3061C15.7363 13.3715 15.5442 13.6547 15.3113 13.9356L14.8879 14.446L14.6461 13.9785C14.2666 13.2445 12.9061 11.9383 12.0907 11.5252C9.40233 10.1628 6.51074 10.373 4.16807 12.1009C3.56852 12.5432 3.12208 12.9052 3.17614 12.9052C3.23005 12.9052 3.00505 13.2457 2.67594 13.662C2.34698 14.0783 2.0354 14.5963 1.98371 14.813C1.93203 15.0298 1.81545 15.3008 1.72455 15.4154C1.6301 15.5346 1.53743 16.4267 1.50817 17.5001C1.46064 19.2389 1.485 19.4455 1.8401 20.3195C2.05099 20.8381 2.39139 21.4828 2.59678 21.7522C2.80218 22.0214 2.9703 22.3005 2.9703 22.3724C2.9703 22.5297 3.75624 23.3012 3.91649 23.3012C3.97886 23.3012 4.25005 23.4693 4.51931 23.6747C4.78871 23.8801 5.43579 24.2256 5.95752 24.4424C6.78267 24.7853 7.10851 24.8359 8.46535 24.8318C9.49767 24.8287 10.231 24.7497 10.635 24.5979L11.2454 24.3687L13.009 26.1369C13.979 27.1094 14.8395 27.9052 14.9213 27.9052C15.0031 27.9052 15.8854 27.0916 16.8823 26.0971C18.346 24.6369 18.7346 24.3224 18.9025 24.4618C19.3298 24.8165 21.3205 25.0039 22.6375 24.8134C25.7222 24.3674 28.1497 21.9696 28.5168 19.0061C28.5971 18.3585 28.6274 19.3061 28.6069 21.816L28.5757 25.6032L28.0883 26.7913C27.8202 27.4448 27.3777 28.2672 27.1049 28.6191C26.4891 29.4132 25.2671 30.7269 25.1442 30.7269C25.094 30.7269 24.839 30.89 24.5776 31.0893C24.0717 31.4753 22.7369 32.0106 21.7574 32.2204C21.4307 32.2904 16.7023 32.3505 11.25 32.3541L1.33663 32.3606V19.9596V7.55862H5.25594C8.58416 7.55862 9.38495 7.60273 10.5653 7.8509ZM10.7537 12.3288C11.9731 12.7993 13.2279 13.9889 13.846 15.2603C14.2876 16.1686 14.3257 16.3642 14.3286 17.7319C14.3314 19.0956 14.2931 19.2984 13.8603 20.2122C13.2604 21.4783 12.286 22.4527 11.02 23.0526C10.1084 23.4843 9.89985 23.524 8.5396 23.524C7.18767 23.524 6.96787 23.4828 6.08911 23.0655C4.81485 22.4605 3.81208 21.4642 3.22069 20.2158C2.78673 19.2998 2.74752 19.0936 2.74752 17.7288C2.74752 16.3476 2.78257 16.1694 3.23376 15.2527C4.01406 13.6678 5.52134 12.4583 7.27455 12.0101C8.09733 11.7998 9.78238 11.9541 10.7537 12.3288ZM23.6807 12.3343C24.3141 12.5838 24.8425 12.9557 25.5472 13.6477C26.8441 14.9214 27.2534 15.9384 27.2505 17.8804C27.2489 19.0707 27.1972 19.3263 26.7775 20.2158C24.6823 24.6559 18.3936 24.7465 16.2294 20.3677C15.6916 19.2794 15.6685 19.1706 15.6719 17.7396C15.675 16.438 15.7262 16.1373 16.0723 15.3923C16.8229 13.7766 18.4212 12.4555 20.1532 12.0188C21.0374 11.7959 22.6895 11.9437 23.6807 12.3343ZM8.97208 13.966C8.92901 14.0357 8.99777 14.2413 9.12505 14.4231C10.0141 15.6923 8.37653 17.5629 6.99965 16.8509C6.7454 16.7195 6.42891 16.4462 6.29614 16.2436C5.955 15.7229 5.71738 15.7858 5.51852 16.4496C5.06881 17.9507 5.40059 19.3535 6.45668 20.4161C8.0051 21.9742 10.2358 22.0678 11.7821 20.6395C12.7133 19.7795 12.9896 19.1129 12.9925 17.719C12.9949 16.5791 12.967 16.4757 12.4424 15.6857C12.1019 15.1728 11.6363 14.7049 11.2292 14.4663C10.5417 14.0634 9.10827 13.7456 8.97208 13.966ZM20.3791 14.0561C20.8889 15.0464 20.9552 15.3338 20.7777 15.7834C20.5169 16.4437 20.2341 16.7316 19.6602 16.921C18.9854 17.1438 18.2369 16.8898 17.7555 16.2748C17.3015 15.6947 17.1373 15.8204 16.906 16.9246C16.4586 19.0605 17.734 21.0637 19.8419 21.5354C21.378 21.8792 23.0752 21.1755 23.9396 19.8363C24.558 18.8783 24.6955 17.3128 24.2494 16.3087C23.8286 15.3616 23.2684 14.7638 22.3931 14.3276C21.6786 13.9715 20.2354 13.7771 20.3791 14.0561ZM15.297 21.5371C15.297 21.6089 15.1294 21.6675 14.9246 21.6675C14.5923 21.6675 14.5715 21.6362 14.7327 21.3781C14.8669 21.163 14.9629 21.1296 15.1053 21.2477C15.2107 21.3353 15.297 21.4655 15.297 21.5371ZM16.5801 23.1254C17.7353 23.7147 17.7285 23.7589 16.2536 25.2407L14.9318 26.5687L13.6292 25.2721C12.9129 24.5591 12.3267 23.9287 12.3267 23.8713C12.3267 23.7044 13.2098 23.1219 13.7948 22.903C14.5044 22.6375 15.8314 22.7434 16.5801 23.1254Z" fill="white"/>
</svg>
