<svg width="25" height="21" viewBox="0 0 25 21" fill="none" xmlns="http://www.w3.org/2000/svg">
<path d="M16.1689 0.79485V0.790527H17.2942L17.7054 0.87265C17.9795 0.925965 18.2284 0.995834 18.452 1.08228C18.6757 1.16872 18.8921 1.26958 19.1013 1.38484C19.3105 1.50009 19.5002 1.61752 19.6704 1.7371C19.8392 1.85525 19.9907 1.98059 20.1249 2.11313C20.2576 2.24712 20.4646 2.2817 20.746 2.21687C21.0273 2.15203 21.3303 2.06198 21.6549 1.94673C21.9795 1.83147 22.3005 1.70181 22.6179 1.55773C22.9353 1.41364 23.1287 1.32216 23.1979 1.28326C23.2657 1.24294 23.3018 1.22133 23.3061 1.21843L23.3104 1.21195L23.3321 1.20114L23.3537 1.19033L23.3754 1.17953L23.397 1.16872L23.4013 1.16224L23.4078 1.15792L23.4144 1.1536L23.4187 1.14711L23.4403 1.14063L23.4619 1.13631L23.4576 1.16872L23.4511 1.20114L23.4403 1.23356L23.4295 1.26597L23.4187 1.28759L23.4078 1.3092L23.397 1.34161C23.3898 1.36322 23.3826 1.39203 23.3754 1.42806C23.3682 1.46408 23.2996 1.60814 23.1698 1.86028C23.0399 2.11242 22.8776 2.36815 22.6829 2.62748C22.4881 2.88681 22.3135 3.08274 22.1592 3.21531C22.0033 3.34929 21.9002 3.44294 21.8497 3.49625C21.7992 3.55099 21.7379 3.60141 21.6657 3.64753L21.5575 3.71885L21.5359 3.72965L21.5142 3.74046L21.5099 3.74694L21.5034 3.75126L21.4969 3.75559L21.4926 3.76207L21.471 3.77287L21.4493 3.78368L21.445 3.79016L21.4385 3.79449L21.432 3.79881L21.4277 3.80529L21.4234 3.81177L21.4169 3.8161L21.4104 3.82042L21.406 3.8269H21.5142L22.1202 3.69724C22.5242 3.61079 22.9101 3.50634 23.278 3.38387L23.8623 3.18937L23.9272 3.16776L23.9597 3.15695L23.9813 3.14615L24.003 3.13534L24.0246 3.12454L24.0462 3.11373L24.0895 3.10725L24.1328 3.10293V3.14615L24.122 3.15047L24.1112 3.15695L24.1069 3.16344L24.1004 3.16776L24.0939 3.17208L24.0895 3.17857L24.0852 3.18505L24.0787 3.18937L24.0722 3.19369L24.0679 3.20018L24.0636 3.20666L24.0571 3.21098L24.0462 3.23259L24.0354 3.25421L24.0289 3.25853C24.0261 3.26285 23.9345 3.3853 23.7541 3.62592C23.5738 3.86796 23.4764 3.99041 23.4619 3.99331C23.4475 3.99763 23.4273 4.01924 23.4013 4.05814C23.3768 4.09847 23.2239 4.25913 22.9426 4.54007C22.6612 4.82102 22.3857 5.07097 22.1159 5.28998C21.8447 5.51042 21.7076 5.78127 21.7047 6.10256C21.7004 6.42241 21.6838 6.78405 21.6549 7.18745C21.6261 7.59086 21.572 8.02667 21.4926 8.49492C21.4133 8.96317 21.2906 9.49265 21.1247 10.0833C20.9588 10.674 20.7568 11.2504 20.5187 11.8122C20.2807 12.3741 20.0318 12.8784 19.7721 13.325C19.5124 13.7717 19.2744 14.1499 19.058 14.4596C18.8416 14.7694 18.6216 15.0611 18.3979 15.3349C18.1743 15.6086 17.8915 15.9169 17.5496 16.2598C17.2062 16.6013 17.0187 16.7886 16.9869 16.8217C16.9538 16.8534 16.8124 16.9716 16.5627 17.1761C16.3146 17.3822 16.0477 17.5882 15.762 17.7942C15.4778 17.9988 15.2167 18.1695 14.9786 18.3064C14.7406 18.4433 14.4535 18.5996 14.1173 18.7754C13.7826 18.9526 13.4205 19.1168 13.0309 19.2681C12.6414 19.4194 12.2302 19.5599 11.7974 19.6895C11.3646 19.8192 10.9462 19.9201 10.5422 19.9921C10.1382 20.0641 9.68016 20.1254 9.16798 20.1758L8.39972 20.2514V20.2622H6.99305V20.2514L6.8091 20.2406C6.68648 20.2334 6.58548 20.2262 6.50612 20.219C6.42679 20.2118 6.1274 20.1722 5.60802 20.1001C5.08863 20.0281 4.68106 19.9561 4.38529 19.884C4.08954 19.812 3.64949 19.6751 3.06518 19.4734C2.48087 19.2717 1.98096 19.0678 1.56545 18.8618C1.15139 18.6572 0.891702 18.5276 0.786374 18.4728C0.682497 18.4195 0.565635 18.3532 0.435788 18.274L0.241018 18.1551L0.236712 18.1487L0.230198 18.1443L0.223705 18.14L0.219377 18.1335L0.197736 18.1227L0.176095 18.1119L0.171788 18.1054L0.165274 18.1011L0.158782 18.0968L0.154454 18.0903L0.150147 18.0838L0.143633 18.0795H0.132812V18.0363L0.154454 18.0406L0.176095 18.0471L0.27348 18.0579C0.338403 18.0651 0.515146 18.0759 0.803687 18.0903C1.09225 18.1047 1.39882 18.1047 1.72343 18.0903C2.04805 18.0759 2.3799 18.0435 2.71893 17.993C3.05798 17.9426 3.45834 17.8562 3.92001 17.7337C4.3817 17.6112 4.80587 17.4657 5.19253 17.2972C5.57774 17.1272 5.85185 17.0004 6.01489 16.9168C6.17646 16.8347 6.42317 16.682 6.75499 16.4587L7.25274 16.1237L7.25707 16.1172L7.26356 16.1129L7.27007 16.1086L7.27438 16.1021L7.27871 16.0956L7.2852 16.0913L7.29172 16.0869L7.29602 16.0805L7.31766 16.074L7.3393 16.0697L7.34363 16.048L7.35013 16.0264L7.35664 16.0221L7.36095 16.0156L7.18782 16.0048C7.0724 15.9976 6.96059 15.9904 6.85238 15.9832C6.74417 15.976 6.57466 15.9436 6.34381 15.886C6.11299 15.8283 5.86412 15.7419 5.59719 15.6266C5.3303 15.5114 5.0706 15.3745 4.81811 15.216C4.56565 15.0575 4.38313 14.9257 4.27059 14.8205C4.15951 14.7168 4.01523 14.5698 3.83777 14.3797C3.66176 14.1881 3.50883 13.9914 3.37898 13.7897C3.24913 13.588 3.12506 13.3553 3.00677 13.0916L2.82713 12.6983L2.81631 12.6659L2.80549 12.6335L2.799 12.6119L2.79467 12.5902L2.82713 12.5946L2.85959 12.6011L3.09765 12.6335C3.25636 12.6551 3.50523 12.6623 3.84426 12.6551C4.18332 12.6479 4.41775 12.6335 4.5476 12.6119C4.67745 12.5902 4.75681 12.5758 4.78565 12.5686L4.82894 12.5578L4.88304 12.547L4.93714 12.5362L4.94147 12.5297L4.94796 12.5254L4.95448 12.5211L4.95878 12.5146L4.9155 12.5038L4.87222 12.493L4.82894 12.4822L4.78565 12.4714L4.74237 12.4606C4.71352 12.4534 4.66303 12.439 4.59088 12.4174C4.51875 12.3957 4.32398 12.3165 4.00657 12.1796C3.68918 12.0428 3.4367 11.9095 3.24913 11.7798C3.06111 11.6498 2.88182 11.5076 2.71243 11.3541C2.54363 11.1985 2.35826 10.9982 2.15626 10.7533C1.95428 10.5084 1.77395 10.2238 1.61523 9.89965C1.45653 9.57548 1.33751 9.26573 1.25815 8.97037C1.17911 8.67675 1.12697 8.37656 1.10236 8.0735L1.06338 7.61967L1.08502 7.62399L1.10666 7.63048L1.1283 7.64128L1.14995 7.65209L1.17159 7.66289L1.19323 7.6737L1.52866 7.82498C1.7523 7.92584 2.03002 8.01228 2.36185 8.08431C2.69369 8.15634 2.89206 8.19598 2.95698 8.20317L3.05436 8.21398H3.24913L3.24483 8.20749L3.23831 8.20317L3.23182 8.19885L3.22749 8.19237L3.22319 8.18588L3.21667 8.18156L3.21018 8.17724L3.20585 8.17076L3.18421 8.15995L3.16257 8.14914L3.15826 8.14266L3.15175 8.13834L3.14526 8.13402L3.14093 8.12753L3.11929 8.11673L3.09765 8.10592L3.09334 8.09944C3.08901 8.09654 3.02697 8.05045 2.9072 7.96113C2.78889 7.87036 2.66482 7.75295 2.53498 7.60886C2.40513 7.46478 2.27528 7.3135 2.14544 7.15503C2.01535 6.99619 1.89949 6.82625 1.79918 6.64717C1.6982 6.46708 1.59142 6.23798 1.47889 5.95993C1.36781 5.68331 1.28341 5.40452 1.22569 5.12357C1.16799 4.84263 1.13553 4.56529 1.1283 4.29154C1.1211 4.01779 1.1283 3.78368 1.14995 3.58918C1.17159 3.39468 1.21487 3.17496 1.27979 2.93004C1.34472 2.68512 1.43851 2.42578 1.56113 2.15203L1.74508 1.74142L1.7559 1.709L1.76672 1.67659L1.77323 1.67226L1.77754 1.66578L1.78187 1.6593L1.78836 1.65498L1.79487 1.6593L1.79918 1.66578L1.80351 1.67226L1.81 1.67659L1.81651 1.68091L1.82082 1.68739L1.82515 1.69388L1.83164 1.6982L1.84246 1.71981L1.85328 1.74142L1.8598 1.74574L1.8641 1.75223L2.15626 2.07639C2.35103 2.29251 2.58187 2.53384 2.84877 2.80037C3.11569 3.0669 3.26357 3.20521 3.29242 3.21531C3.32129 3.22682 3.35734 3.25995 3.40062 3.31472C3.4439 3.36803 3.58819 3.49554 3.83344 3.69724C4.07872 3.89893 4.39973 4.13307 4.79647 4.3996C5.19324 4.66613 5.63327 4.92907 6.11658 5.18841C6.59991 5.44774 7.1193 5.68186 7.67474 5.89077C8.2302 6.09969 8.61975 6.23655 8.84336 6.30139C9.067 6.36622 9.44931 6.44906 9.99034 6.54991C10.5314 6.65077 10.939 6.71561 11.2131 6.74442C11.4872 6.77322 11.6748 6.7898 11.7757 6.79412L11.9272 6.79844L11.9229 6.76603L11.9164 6.73361L11.8731 6.46347C11.8443 6.28338 11.8298 6.03125 11.8298 5.70708C11.8298 5.38291 11.8551 5.08396 11.9056 4.81021C11.9561 4.53646 12.0318 4.25913 12.1328 3.97818C12.2338 3.69724 12.3326 3.47174 12.4293 3.30175C12.5274 3.13318 12.6558 2.94084 12.8145 2.72473C12.9732 2.50862 13.1788 2.28531 13.4313 2.05478C13.6838 1.82426 13.9723 1.61895 14.2969 1.43886C14.6215 1.25878 14.9209 1.12189 15.195 1.02825C15.4692 0.934609 15.7 0.873363 15.8875 0.844555C16.0751 0.815748 16.1689 0.799172 16.1689 0.79485Z" fill="white"/>
</svg>
