<svg width="30" height="31" viewBox="0 0 30 31" fill="none" xmlns="http://www.w3.org/2000/svg">
<path fill-rule="evenodd" clip-rule="evenodd" d="M13.7943 0.0287729C13.1911 0.0785639 12.1948 0.256322 11.3779 0.459921C8.69451 1.12885 6.30377 2.51708 4.33277 4.55089C1.67923 7.28892 0.239255 10.6967 0.122406 14.5145C0.0746253 16.0747 0.237304 17.4233 0.665613 19.0178C0.859751 19.7406 1.40124 21.0995 1.78562 21.8284L2.09317 22.4117L1.87396 23.2196C1.27014 25.4446 0.371184 28.7218 0.186744 29.3705C0.0724965 29.7723 -0.0110011 30.1111 0.00118052 30.1233C0.0134213 30.1355 0.460772 30.0295 0.995405 29.8878C1.52998 29.7461 3.0052 29.3587 4.27363 29.0268C5.54206 28.6949 6.8756 28.3458 7.23703 28.2509L7.89419 28.0783L8.68582 28.4554C12.2316 30.1446 16.4416 30.3433 20.1512 28.9965C24.0594 27.5777 27.2008 24.5976 28.8367 20.7572C29.3308 19.5974 29.6787 18.3626 29.8897 17.0201C30.0374 16.0797 30.0367 13.8567 29.8882 12.8583C29.7565 11.9717 29.3978 10.545 29.1135 9.77611C28.5864 8.35121 27.6715 6.74625 26.6927 5.52921C26.1267 4.82557 24.8374 3.5773 24.1073 3.02617C21.8669 1.33487 19.2601 0.315397 16.4934 0.0484646C15.9296 -0.00593897 14.3541 -0.017411 13.7943 0.0287729ZM16.5144 2.59792C19.2175 2.87502 21.8445 4.15173 23.8507 6.16336C25.7154 8.03295 26.8476 10.2265 27.3485 12.9398C27.5065 13.7957 27.49 16.1472 27.3194 17.0792C26.867 19.5502 25.7132 21.7878 23.9697 23.5752C22.016 25.578 19.7322 26.7631 16.9284 27.2294C16.4415 27.3103 15.9655 27.3373 15.0361 27.3367C13.6998 27.3359 12.9444 27.2405 11.7549 26.9222C10.7804 26.6614 9.37976 26.0508 8.50126 25.5038L8.29382 25.3746L7.20031 25.6564C6.59891 25.8114 5.54135 26.0849 4.85019 26.264C4.15909 26.4432 3.59371 26.5721 3.59382 26.5505C3.59394 26.5289 3.71469 26.072 3.86218 25.5354C4.00966 24.9988 4.27771 24.0149 4.45795 23.349C4.63814 22.6832 4.79786 22.1186 4.81282 22.0943C4.82784 22.0701 4.68296 21.79 4.49095 21.4718C3.63132 20.0474 3.19171 18.9164 2.84548 17.2387C2.64129 16.249 2.58765 14.3741 2.73366 13.3271C3.20401 9.95411 4.92387 7.03134 7.64429 4.98186C8.86925 4.05901 10.1381 3.43319 11.695 2.98401C13.2985 2.52134 14.6843 2.41029 16.5144 2.59792ZM9.32961 8.10551C9.04175 8.19829 8.33758 8.91825 8.04273 9.42131C7.64553 10.099 7.54228 10.485 7.51289 11.4023C7.49006 12.1168 7.50331 12.2627 7.6392 12.792C8.01689 14.2629 9.38331 16.3045 11.2216 18.1447C12.3867 19.3109 13.3663 20.0655 14.5585 20.7152C15.1886 21.0586 16.6967 21.6639 17.5197 21.9037C18.0564 22.0601 18.193 22.076 18.9981 22.076C19.7099 22.076 19.9493 22.0542 20.2103 21.9653C21.0154 21.6911 21.8439 21.1271 22.196 20.6135C22.5566 20.0877 22.7779 18.6434 22.5313 18.4252C22.3005 18.221 19.3777 16.8263 19.0537 16.7657C18.9541 16.7471 18.8169 16.7634 18.7486 16.802C18.6803 16.8406 18.3588 17.2049 18.0341 17.6114C17.2705 18.5674 17.1417 18.6876 16.881 18.6876C16.623 18.6876 15.3755 18.0986 14.6979 17.6568C13.442 16.8379 12.2626 15.5983 11.4991 14.2947C11.2436 13.8586 11.2741 13.7405 11.8006 13.1247C12.2683 12.5777 12.582 12.0558 12.582 11.8246C12.582 11.7543 12.4782 11.451 12.3513 11.1505C11.8975 10.0754 11.5246 9.17844 11.3715 8.79377C11.2859 8.57876 11.1358 8.32596 11.0378 8.232C10.8649 8.06625 10.8401 8.06086 10.1981 8.05004C9.83426 8.04383 9.44345 8.06885 9.32961 8.10551Z" fill="white"/>
</svg>
