<svg width="28" height="21" viewBox="0 0 28 21" fill="none" xmlns="http://www.w3.org/2000/svg">
<path d="M15.051 19.8332L9.63473 19.732C7.88107 19.6967 6.12304 19.7671 4.40376 19.4016C1.78834 18.8556 1.60306 16.1784 1.40917 13.9328C1.14203 10.7756 1.24545 7.56122 1.74959 4.43046C2.0342 2.67377 3.15424 1.62554 4.88635 1.51147C10.7335 1.09751 16.6195 1.14657 22.4537 1.3397C23.0698 1.3574 23.6902 1.45417 24.2978 1.56432C27.2969 2.10154 27.37 5.13541 27.5644 7.68935C27.7583 10.2696 27.6764 12.8632 27.3059 15.4259C27.0086 17.5478 26.4398 19.3272 24.0392 19.499C21.0316 19.7236 18.0929 19.9044 15.0768 19.8468C15.0769 19.8332 15.0596 19.8332 15.051 19.8332ZM11.8668 14.4612C14.1333 13.1313 16.3566 11.8236 18.6102 10.5026C16.3394 9.17276 14.1203 7.86504 11.8668 6.54408V14.4612Z" fill="white"/>
</svg>
